<svg xmlns="http://www.w3.org/2000/svg" viewBox="0 0 384 384" role="img" aria-label="Avatar padrao">
  <rect width="384" height="384" fill="#000000"/>
  <g fill="#a5a3a3">
    <path d="M192 42c-40.2 0-72.8 29.7-72.8 66.4 0 15.1 5.5 29.1 14.8 40.2-7.4 4.4-12.3 12.1-12.3 20.8 0 13.8 11.4 25 25.4 25 7 0 13.4-2.8 18-7.3 8.4 3.3 17.6 5.1 26.9 5.1 9.3 0 18.5-1.8 26.9-5.1 4.6 4.5 11 7.3 18 7.3 14 0 25.4-11.2 25.4-25 0-8.7-4.9-16.4-12.3-20.8 9.3-11.1 14.8-25.1 14.8-40.2C264.8 71.7 232.2 42 192 42z"/>
    <path d="M192.2 154c-31.1 0-56.3 25.1-56.3 56 0 11.9 3.7 22.9 10 32 11.6 16.8 29.9 28.8 46.3 28.8 16.3 0 34.6-12 46.2-28.8 6.3-9.1 10-20.1 10-32 0-30.9-25.2-56-56.2-56z"/>
    <path d="M192 264.5c-59.8 0-109 23.3-131.3 60.6V384h262.6v-58.9C301 287.8 251.8 264.5 192 264.5z"/>
    <path d="M140.8 93.2c16.7-18.1 41.2-28.6 67.4-28.6 15.9 0 31.3 3.8 44.8 11-12.9-20.3-35.9-33.6-61-33.6-35.5 0-64.8 26.4-70.4 60.8 5.2-3.6 11.8-5.7 19.2-5.7z"/>
  </g>
</svg>
