<svg width="1600" height="900" viewBox="0 0 1600 900" fill="none" xmlns="http://www.w3.org/2000/svg">
  <defs>
    <linearGradient id="skyRoutine" x1="800" y1="0" x2="800" y2="480" gradientUnits="userSpaceOnUse">
      <stop stop-color="#F5D198"/>
      <stop offset="0.46" stop-color="#F4B86B"/>
      <stop offset="1" stop-color="#D38A53"/>
    </linearGradient>
    <linearGradient id="streetRoutine" x1="800" y1="420" x2="800" y2="900" gradientUnits="userSpaceOnUse">
      <stop stop-color="#7A726C"/>
      <stop offset="1" stop-color="#4A413D"/>
    </linearGradient>
    <linearGradient id="brickRoutine" x1="910" y1="40" x2="1360" y2="640" gradientUnits="userSpaceOnUse">
      <stop stop-color="#8B462C"/>
      <stop offset="1" stop-color="#3E2218"/>
    </linearGradient>
  </defs>

  <rect width="1600" height="900" fill="url(#skyRoutine)"/>
  <rect width="1600" height="900" fill="#0C1319" fill-opacity="0.08"/>
  <rect y="462" width="1600" height="438" fill="url(#streetRoutine)"/>

  <polygon points="980,40 1490,40 1600,690 980,690" fill="url(#brickRoutine)"/>
  <polygon points="970,40 1045,40 1080,690 970,690" fill="#4E5A65" opacity="0.28"/>

  <rect x="0" y="320" width="970" height="370" fill="#C8B59B" fill-opacity="0.14"/>
  <rect x="0" y="360" width="970" height="330" fill="#ADB5BC" fill-opacity="0.1"/>

  <g opacity="0.2">
    <rect x="1034" y="118" width="456" height="260" rx="18" fill="#FFF1D0"/>
  </g>

  <g opacity="0.88">
    <rect x="1222" y="180" width="112" height="150" fill="#1E242B"/>
    <rect x="1082" y="170" width="108" height="156" fill="#1A2027"/>
    <rect x="1360" y="190" width="104" height="148" fill="#1D232A"/>
  </g>

  <path d="M1100 0V322" stroke="#373E45" stroke-width="18"/>
  <path d="M1136 0V318" stroke="#373E45" stroke-width="10"/>
  <path d="M1300 0V318" stroke="#373E45" stroke-width="8"/>
  <path d="M1020 694H1260" stroke="#D2D9DE" stroke-width="10" stroke-opacity="0.18"/>

  <path d="M1074 710C1096 676 1118 660 1146 660C1174 660 1196 676 1218 710" stroke="#B2C4D3" stroke-width="7"/>
  <circle cx="1100" cy="714" r="34" stroke="#AFC2D1" stroke-width="8"/>
  <circle cx="1200" cy="714" r="34" stroke="#AFC2D1" stroke-width="8"/>
  <path d="M1120 672L1182 622L1208 622" stroke="#AFC2D1" stroke-width="6"/>
  <path d="M1146 660L1136 622L1184 622" stroke="#AFC2D1" stroke-width="6"/>
  <path d="M1184 622L1228 642" stroke="#AFC2D1" stroke-width="6"/>

  <rect x="1088" y="738" width="120" height="54" rx="12" fill="#2C425B"/>
  <rect x="1146" y="778" width="82" height="28" rx="10" fill="#29333D"/>
  <circle cx="1118" cy="774" r="14" fill="#1B2027"/>
  <circle cx="1188" cy="774" r="14" fill="#1B2027"/>
  <rect x="1228" y="776" width="40" height="18" rx="8" fill="#0F141A"/>
  <rect x="1048" y="772" width="28" height="52" rx="10" fill="#526170"/>

  <g stroke="#8E969D" stroke-width="4" opacity="0.45">
    <path d="M180 0V482"/>
    <path d="M226 0V482"/>
    <path d="M272 0V482"/>
    <path d="M64 182H982"/>
    <path d="M0 448H970"/>
  </g>

  <g opacity="0.14" fill="#FFF7DE">
    <rect x="1080" y="112" width="438" height="234" rx="18"/>
  </g>
</svg>
